<svg width="550" height="75" viewBox="0 0 550 75" fill="none" xmlns="http://www.w3.org/2000/svg">
<g clip-path="url(#clip0_1_11)">
<rect width="550" height="75" fill="white"/>
<path d="M173.1 57.63C171.093 57.3967 169.507 56.6967 168.34 55.53C167.22 54.3633 166.66 52.8933 166.66 51.12C166.66 49.7667 166.987 48.3667 167.64 46.92L183.67 10.45C184.557 8.39666 186.097 7.37 188.29 7.37C190.437 7.37 191.953 8.39666 192.84 10.45L208.87 46.92C209.523 48.46 209.85 49.86 209.85 51.12C209.85 52.8933 209.267 54.3633 208.1 55.53C206.98 56.6967 205.393 57.3967 203.34 57.63L197.46 44.33H179.05L173.1 57.63ZM194.59 36.35L186.89 17.17L186.05 17.52L187.73 21.86L181.85 36.35H194.59ZM216.665 28.09C216.665 25.9433 217.342 24.2867 218.695 23.12C220.048 21.9533 222.102 21.37 224.855 21.37V25.57C224.015 26.5967 223.455 27.3433 223.175 27.81L223.665 28.09C225.112 25.8967 226.652 24.24 228.285 23.12C229.918 21.9533 231.855 21.37 234.095 21.37C238.155 21.37 240.955 23.3533 242.495 27.32C243.662 25.4533 245.155 24.0067 246.975 22.98C248.795 21.9067 250.848 21.37 253.135 21.37C256.308 21.37 258.828 22.5367 260.695 24.87C262.608 27.1567 263.565 30.0967 263.565 33.69V52.31C263.565 54.1767 262.842 55.53 261.395 56.37C259.995 57.21 257.848 57.63 254.955 57.63V34.39C254.955 32.6633 254.558 31.2867 253.765 30.26C253.018 29.2333 251.852 28.72 250.265 28.72C248.585 28.72 247.162 29.3033 245.995 30.47C244.875 31.59 244.315 33.3633 244.315 35.79V52.31C244.315 54.1767 243.615 55.53 242.215 56.37C240.862 57.21 238.738 57.63 235.845 57.63V34.39C235.845 32.6167 235.472 31.24 234.725 30.26C233.978 29.2333 232.812 28.72 231.225 28.72C229.265 28.72 227.772 29.3967 226.745 30.75C225.765 32.0567 225.275 33.8533 225.275 36.14V52.31C225.275 54.1767 224.552 55.53 223.105 56.37C221.705 57.21 219.558 57.63 216.665 57.63V28.09ZM271.353 27.39C271.353 25.6633 272.029 24.24 273.383 23.12C274.736 21.9533 276.743 21.37 279.403 21.37V25.15C278.609 26.2233 278.166 26.8533 278.073 27.04L278.353 27.32C279.846 25.36 281.479 23.89 283.253 22.91C285.073 21.8833 287.313 21.37 289.973 21.37C292.539 21.37 294.803 21.9067 296.763 22.98C298.769 24.0067 300.333 25.4767 301.453 27.39C302.573 29.3033 303.133 31.4967 303.133 33.97V45.03C303.133 47.55 302.503 49.7667 301.243 51.68C300.029 53.5933 298.349 55.0633 296.203 56.09C294.056 57.1167 291.629 57.63 288.923 57.63C287.196 57.63 285.399 57.28 283.533 56.58C281.713 55.8333 280.173 54.83 278.913 53.57L278.633 53.92C278.959 54.3867 279.473 54.8767 280.173 55.39V65.75C280.173 69.67 277.233 71.63 271.353 71.63V27.39ZM287.243 50.07C289.529 50.07 291.303 49.58 292.563 48.6C293.823 47.62 294.453 46.2433 294.453 44.47V34.53C294.453 32.71 293.823 31.3333 292.563 30.4C291.349 29.42 289.576 28.93 287.243 28.93C285.143 28.93 283.416 29.4433 282.063 30.47C280.709 31.45 280.033 32.6867 280.033 34.18V44.82C280.033 46.2667 280.686 47.5033 281.993 48.53C283.346 49.5567 285.096 50.07 287.243 50.07ZM325.372 57.63C322.479 57.63 319.842 57.07 317.462 55.95C315.082 54.7833 313.192 53.22 311.792 51.26C310.392 49.2533 309.692 47.0133 309.692 44.54V35.23C309.692 32.6167 310.416 30.26 311.862 28.16C313.309 26.06 315.222 24.4033 317.602 23.19C320.029 21.9767 322.642 21.37 325.442 21.37C328.196 21.37 330.716 21.9533 333.002 23.12C335.336 24.24 337.179 25.8267 338.532 27.88C339.886 29.8867 340.562 32.1967 340.562 34.81V38.73C340.562 39.7567 340.166 40.62 339.372 41.32C338.626 42.02 337.669 42.37 336.502 42.37H318.162V43.91C318.162 45.9167 318.769 47.55 319.982 48.81C321.196 50.07 323.016 50.7 325.442 50.7C327.776 50.7 329.502 50.1867 330.622 49.16C331.789 48.1333 332.372 46.8033 332.372 45.17C333.212 45.0767 333.796 45.03 334.122 45.03C335.849 45.03 337.202 45.4267 338.182 46.22C339.162 46.9667 339.652 48.04 339.652 49.44C339.652 50.7933 339.022 52.1 337.762 53.36C336.502 54.62 334.776 55.6467 332.582 56.44C330.389 57.2333 327.986 57.63 325.372 57.63ZM332.652 36.14V34.81C332.652 32.85 331.976 31.2633 330.622 30.05C329.269 28.8367 327.519 28.23 325.372 28.23C323.226 28.23 321.476 28.8367 320.122 30.05C318.816 31.2167 318.162 32.8033 318.162 34.81V36.14H332.652ZM360.18 57.63C357.66 57.63 355.397 57.0933 353.39 56.02C351.383 54.9467 349.797 53.4767 348.63 51.61C347.463 49.6967 346.88 47.5033 346.88 45.03V33.97C346.88 31.5433 347.487 29.3733 348.7 27.46C349.913 25.5467 351.593 24.0533 353.74 22.98C355.933 21.9067 358.36 21.37 361.02 21.37C362.747 21.37 364.52 21.7433 366.34 22.49C368.207 23.19 369.77 24.1467 371.03 25.36L371.31 25.01C371.077 24.6367 370.563 24.17 369.77 23.61V13.25C369.77 11.3833 370.493 9.93666 371.94 8.91C373.433 7.88333 375.673 7.37 378.66 7.37V51.61C378.66 53.3367 378.007 54.7833 376.7 55.95C375.393 57.07 373.363 57.63 370.61 57.63V53.78C371.217 53.0333 371.66 52.4267 371.94 51.96L371.59 51.68C370.143 53.64 368.533 55.1333 366.76 56.16C365.033 57.14 362.84 57.63 360.18 57.63ZM362.77 50.07C364.87 50.07 366.573 49.58 367.88 48.6C369.233 47.5733 369.91 46.29 369.91 44.75V34.18C369.91 32.6867 369.233 31.45 367.88 30.47C366.573 29.4433 364.847 28.93 362.7 28.93C360.413 28.93 358.64 29.42 357.38 30.4C356.167 31.3333 355.56 32.6867 355.56 34.46V44.4C355.56 46.2667 356.167 47.69 357.38 48.67C358.64 49.6033 360.437 50.07 362.77 50.07ZM391.85 57.63C389.843 57.3967 388.257 56.6967 387.09 55.53C385.97 54.3633 385.41 52.8933 385.41 51.12C385.41 49.7667 385.737 48.3667 386.39 46.92L402.42 10.45C403.307 8.39666 404.847 7.37 407.04 7.37C409.187 7.37 410.703 8.39666 411.59 10.45L427.62 46.92C428.273 48.46 428.6 49.86 428.6 51.12C428.6 52.8933 428.017 54.3633 426.85 55.53C425.73 56.6967 424.143 57.3967 422.09 57.63L416.21 44.33H397.8L391.85 57.63ZM413.34 36.35L405.64 17.17L404.8 17.52L406.48 21.86L400.6 36.35H413.34ZM466.425 50.84C466.425 53.0333 465.725 54.7133 464.325 55.88C462.972 57.0467 460.895 57.63 458.095 57.63V53.43C458.702 52.73 459.262 51.96 459.775 51.12L459.355 50.84C456.368 55.3667 452.355 57.63 447.315 57.63C444.935 57.63 442.788 57.0933 440.875 56.02C439.008 54.9 437.515 53.36 436.395 51.4C435.322 49.44 434.785 47.2233 434.785 44.75V26.69C434.785 24.7767 435.485 23.4233 436.885 22.63C438.332 21.79 440.525 21.37 443.465 21.37V44.12C443.465 45.94 444.025 47.3867 445.145 48.46C446.265 49.5333 447.875 50.07 449.975 50.07C452.308 50.07 454.175 49.3467 455.575 47.9C457.022 46.4067 457.745 44.5633 457.745 42.37V26.69C457.745 24.7767 458.445 23.4233 459.845 22.63C461.245 21.79 463.438 21.37 466.425 21.37V50.84ZM490.015 57.63C486.235 57.63 483.435 56.5333 481.615 54.34C479.795 52.1467 478.885 49.3233 478.885 45.87V28.51H471.675C471.675 26.3167 472.095 24.6833 472.935 23.61C473.775 22.5367 474.895 22 476.295 22H479.025V16.19C479.025 14.2767 479.725 12.9233 481.125 12.13C482.525 11.29 484.648 10.87 487.495 10.87V22H496.805C496.805 24.3333 496.361 26.0133 495.475 27.04C494.588 28.02 493.165 28.51 491.205 28.51H487.635V45.52C487.635 47.1533 487.938 48.32 488.545 49.02C489.198 49.72 490.295 50.07 491.835 50.07C493.468 50.07 495.101 49.6267 496.735 48.74C497.201 49.16 497.575 49.6967 497.855 50.35C498.135 50.9567 498.275 51.5867 498.275 52.24C498.275 53.64 497.551 54.9 496.105 56.02C494.658 57.0933 492.628 57.63 490.015 57.63ZM517.721 57.63C514.688 57.63 511.934 57.0933 509.461 56.02C507.034 54.9 505.121 53.36 503.721 51.4C502.321 49.44 501.621 47.2233 501.621 44.75V34.88C501.621 32.36 502.298 30.0733 503.651 28.02C505.051 25.9667 506.964 24.3567 509.391 23.19C511.818 21.9767 514.594 21.37 517.721 21.37C520.848 21.37 523.624 21.9767 526.051 23.19C528.524 24.3567 530.438 25.9667 531.791 28.02C533.191 30.0733 533.891 32.36 533.891 34.88V44.75C533.891 47.2233 533.168 49.44 531.721 51.4C530.321 53.36 528.384 54.9 525.911 56.02C523.484 57.0933 520.754 57.63 517.721 57.63ZM517.721 50.14C520.054 50.14 521.874 49.6033 523.181 48.53C524.534 47.4567 525.211 46.01 525.211 44.19V35.3C525.211 33.3867 524.534 31.8467 523.181 30.68C521.874 29.4667 520.054 28.86 517.721 28.86C515.434 28.86 513.614 29.4667 512.261 30.68C510.908 31.8467 510.231 33.3867 510.231 35.3V44.19C510.231 46.01 510.908 47.4567 512.261 48.53C513.614 49.6033 515.434 50.14 517.721 50.14Z" fill="black"/>
<path d="M54.2306 49.2306C51.0224 49.2306 48.2371 50.996 46.7246 53.5895C45.9748 54.8754 45.5127 56.3575 45.5127 57.9485C45.5127 62.7521 49.4227 66.6664 54.2306 66.6664C59.0385 66.6664 62.9485 62.7521 62.9485 57.9485C62.9485 56.3575 62.4908 54.8754 61.7367 53.5895C60.2241 50.996 57.4432 49.2306 54.2306 49.2306Z" fill="#8E40FF"/>
<path d="M115.256 49.2306C112.048 49.2306 109.262 50.996 107.75 53.5895C107 54.8754 106.538 56.3575 106.538 57.9485C106.538 62.7521 110.448 66.6664 115.256 66.6664C120.064 66.6664 123.974 62.7521 123.974 57.9485C123.974 56.3575 123.516 54.8754 122.762 53.5895C121.249 50.996 118.469 49.2306 115.256 49.2306Z" fill="#8E40FF"/>
<path d="M141.41 40.5127V36.1537L115.256 28.6781L84.7433 10H36.7948V14.359H62.9485V18.7179H15V23.0769H67.3075V27.4358H23.7179V31.7948H45.5127V36.1537H36.7948V40.5127H19.359V44.8717H41.1537V49.2306H36.7948V53.5896H23.7179V57.9485H41.1537C41.1537 56.4142 41.4675 54.9583 41.9557 53.5896C43.7604 48.5245 48.5465 44.8717 54.2306 44.8717C59.919 44.8717 64.7009 48.5245 66.5055 53.5896C66.9893 54.9583 67.3075 56.4142 67.3075 57.9485H102.179C102.179 56.4142 102.493 54.9583 102.981 53.5896C104.786 48.5245 109.572 44.8717 115.256 44.8717C120.944 44.8717 125.726 48.5245 127.531 53.5896C128.015 54.9583 128.333 56.4142 128.333 57.9485H141.41V53.5896H145.769V40.5127H141.41Z" fill="#8E40FF"/>
</g>
<defs>
<clipPath id="clip0_1_11">
<rect width="550" height="75" fill="white"/>
</clipPath>
</defs>
</svg>
